<?xml version="1.0" encoding="UTF-8"?>
<svg id="Layer_1" xmlns="http://www.w3.org/2000/svg" version="1.1" viewBox="0 0 44 44">
  <!-- Generator: Adobe Illustrator 29.1.0, SVG Export Plug-In . SVG Version: 2.1.0 Build 142)  -->
  <defs>
    <style>
      .st0 {
        fill: #4e75ff;
      }
    </style>
  </defs>
  <path class="st0" d="M14.2,39.9c.3.3.7.4,1.2.4h19.5c1,0,1.9-.4,2.6-1.1.7-.7,1.1-1.6,1.1-2.6v-13.2c0-.9-.3-1.8-.9-2.4s-1.4-1.1-2.3-1.2l-13.2-1.5V7.3c0-1-.4-1.9-1.1-2.6-.7-.7-1.6-1.1-2.6-1.1s-1.9.4-2.6,1.1c-.7.7-1.1,1.6-1.1,2.6v22l-5.6-2.2c-.5-.2-1-.3-1.5-.3s-1,.1-1.4.3c-.5.2-.9.5-1.2.9-.3.4-.6.8-.7,1.3l-.2.6c-.1.3-.1.7,0,1.1.1.4.3.7.6.9l9.5,7.9Z"/>
</svg>